<svg width="130" height="78" viewBox="0 0 130 78" fill="none" xmlns="http://www.w3.org/2000/svg">
<path d="M38.1228 6.33538C18.6228 14.3914 10.5 31.8645 10.5 44.3645C10.5 56.8645 16.5 65.3646 32 72.3646C47.5 79.3646 84 78.541 98 72.3646C112 66.1881 118.452 58.6799 118.452 42.6799C118.452 26.6799 105.623 13.8354 89.6228 6.33538C73.6228 -1.16462 57.6228 -1.72067 38.1228 6.33538Z" fill="#ECE8F2" stroke="#88838F"/>
<path d="M107.674 39.8993C118.917 78.0289 11.5464 78.0289 21.103 40.1596C29.0108 8.82327 75.4107 3.0609 97.555 23.6097C102.172 27.8938 105.734 33.3214 107.674 39.8993Z" fill="#3D6075" stroke="#2A3942"/>
<path d="M14.1249 58.8307C10 47.9816 10 39.1799 14.1249 28.1799C8.75088 29.3807 3.12472 35.1799 1.62486 39.1799C0.125013 43.1799 0.125077 47.1799 1.62486 51.1799C3.12465 55.1799 8.14456 58.0237 14.1249 58.8307Z" fill="#D8D2E2" stroke="#87828F"/>
<path d="M115.5 58.8307C119.625 47.9816 119.625 39.1799 115.5 28.1799C120.874 29.3807 126.5 35.1799 128 39.1799C129.5 43.1799 129.5 47.1799 128 51.1799C126.5 55.1799 121.48 58.0237 115.5 58.8307Z" fill="#D8D2E2" stroke="#87828F"/>
<path d="M43.6251 26.7291L44.7092 29.9166L49.2508 31.0366L51.9259 28.5739L52.2821 28.2452L52.622 28.5911L56.8401 32.8873L57.2016 33.2556L56.8219 33.6049L54.1468 36.0677L54.7775 39.97L58.5549 41.1768L59.0139 41.3232L57.0555 48.34L56.5886 48.2312L53.3055 47.4662L50.3526 50.2625L50.974 53.4651L51.0595 53.9077L44.7097 55.8342L44.2309 55.9792L44.0859 55.5004L42.9555 51.7746L39.4341 50.2275L37.3244 53.0318L37.0144 53.4441L36.6121 53.1209L31.9194 49.3489L31.5059 49.0164L31.8619 48.6233L34.055 46.2001L32.9484 41.8111L29.6999 41.0551L29.1914 40.9366L31.1605 33.8812L31.6274 33.99L34.9096 34.754L37.8625 31.9577L37.2421 28.756L37.158 28.3231L37.5775 28.186L42.9964 26.4152L43.466 26.2618L43.6251 26.7291ZM44.1471 36.8534C41.6648 36.9766 39.7525 39.0887 39.8757 41.5709C39.9988 44.0531 42.111 45.9655 44.5932 45.8423C47.0754 45.7191 48.9878 43.607 48.8646 41.1248C48.7414 38.6426 46.6293 36.7302 44.1471 36.8534Z" fill="#42B8F7"/>
<path d="M43.6251 26.7291L44.0984 26.5681L44.0984 26.568L43.6251 26.7291ZM44.7092 29.9166L44.2358 30.0776L44.3239 30.3366L44.5895 30.4021L44.7092 29.9166ZM49.2508 31.0366L49.131 31.5221L49.3918 31.5864L49.5894 31.4045L49.2508 31.0366ZM51.9259 28.5739L52.2646 28.9417L52.2649 28.9414L51.9259 28.5739ZM52.2821 28.2452L52.6388 27.8948L52.2992 27.5492L51.9431 27.8777L52.2821 28.2452ZM52.622 28.5911L52.9787 28.2408L52.9786 28.2407L52.622 28.5911ZM56.8401 32.8873L57.1969 32.5371L57.1969 32.537L56.8401 32.8873ZM57.2016 33.2556L57.5401 33.6235L57.9201 33.2739L57.5584 32.9054L57.2016 33.2556ZM56.8219 33.6049L56.4834 33.237L56.4833 33.2371L56.8219 33.6049ZM54.1468 36.0677L53.8081 35.6999L53.6103 35.882L53.6532 36.1475L54.1468 36.0677ZM54.7775 39.97L54.2839 40.0497L54.3329 40.3528L54.6253 40.4462L54.7775 39.97ZM58.5549 41.1768L58.4027 41.6531L58.4029 41.6531L58.5549 41.1768ZM59.0139 41.3232L59.4954 41.4576L59.625 40.9932L59.1658 40.8468L59.0139 41.3232ZM57.0555 48.34L56.942 48.8269L57.4084 48.9356L57.5371 48.4744L57.0555 48.34ZM56.5886 48.2312L56.7021 47.7442L56.7021 47.7442L56.5886 48.2312ZM53.3055 47.4662L53.4189 46.9792L53.157 46.9182L52.9617 47.1031L53.3055 47.4662ZM50.3526 50.2625L50.0088 49.8994L49.8094 50.0882L49.8617 50.3577L50.3526 50.2625ZM50.974 53.4651L51.4649 53.3703L51.4648 53.3699L50.974 53.4651ZM51.0595 53.9077L51.2047 54.3862L51.6359 54.2553L51.5504 53.8128L51.0595 53.9077ZM44.7097 55.8342L44.8546 56.3127L44.8549 56.3127L44.7097 55.8342ZM44.2309 55.9792L43.7524 56.1241L43.8973 56.6027L44.3759 56.4577L44.2309 55.9792ZM44.0859 55.5004L44.5645 55.3555L44.5644 55.3553L44.0859 55.5004ZM42.9555 51.7746L43.434 51.6294L43.3672 51.4093L43.1566 51.3168L42.9555 51.7746ZM39.4341 50.2275L39.6352 49.7697L39.2726 49.6104L39.0345 49.9269L39.4341 50.2275ZM37.3244 53.0318L36.9248 52.7312L36.9247 52.7313L37.3244 53.0318ZM37.0144 53.4441L36.7012 53.8339L37.1037 54.1574L37.414 53.7446L37.0144 53.4441ZM36.6121 53.1209L36.2989 53.5106L36.2989 53.5107L36.6121 53.1209ZM31.9194 49.3489L31.6061 49.7385L31.6061 49.7386L31.9194 49.3489ZM31.5059 49.0164L31.1353 48.6808L30.7794 49.0739L31.1926 49.4061L31.5059 49.0164ZM31.8619 48.6233L32.2325 48.9589L32.2326 48.9588L31.8619 48.6233ZM34.055 46.2001L34.4257 46.5356L34.6052 46.3373L34.5398 46.0779L34.055 46.2001ZM32.9484 41.8111L33.4332 41.6888L33.3587 41.3932L33.0617 41.3241L32.9484 41.8111ZM29.6999 41.0551L29.5864 41.5421L29.5866 41.5421L29.6999 41.0551ZM29.1914 40.9366L28.7098 40.8022L28.5695 41.3051L29.0779 41.4236L29.1914 40.9366ZM31.1605 33.8812L31.274 33.3942L30.8077 33.2855L30.6789 33.7467L31.1605 33.8812ZM31.6274 33.99L31.5139 34.4769L31.5141 34.477L31.6274 33.99ZM34.9096 34.754L34.7962 35.241L35.0581 35.302L35.2534 35.1171L34.9096 34.754ZM37.8625 31.9577L38.2063 32.3208L38.4056 32.1321L38.3534 31.8626L37.8625 31.9577ZM37.2421 28.756L37.733 28.6609L37.7329 28.6607L37.2421 28.756ZM37.158 28.3231L37.0026 27.8479L36.5831 27.9851L36.6672 28.4184L37.158 28.3231ZM37.5775 28.186L37.4222 27.7107L37.4221 27.7107L37.5775 28.186ZM42.9964 26.4152L42.8412 25.9399L42.8411 25.9399L42.9964 26.4152ZM43.466 26.2618L43.9393 26.1007L43.7801 25.6332L43.3107 25.7865L43.466 26.2618ZM43.6251 26.7291L43.1517 26.8901L44.2358 30.0776L44.7092 29.9166L45.1826 29.7556L44.0984 26.5681L43.6251 26.7291ZM44.7092 29.9166L44.5895 30.4021L49.131 31.5221L49.2508 31.0366L49.3705 30.5512L44.8289 29.4312L44.7092 29.9166ZM49.2508 31.0366L49.5894 31.4045L52.2646 28.9417L51.9259 28.5739L51.5873 28.206L48.9121 30.6688L49.2508 31.0366ZM51.9259 28.5739L52.2649 28.9414L52.6212 28.6128L52.2821 28.2452L51.9431 27.8777L51.5869 28.2063L51.9259 28.5739ZM52.2821 28.2452L51.9255 28.5957L52.2653 28.9415L52.622 28.5911L52.9786 28.2407L52.6388 27.8948L52.2821 28.2452ZM52.622 28.5911L52.2652 28.9414L56.4833 33.2376L56.8401 32.8873L57.1969 32.537L52.9787 28.2408L52.622 28.5911ZM56.8401 32.8873L56.4833 33.2376L56.8447 33.6058L57.2016 33.2556L57.5584 32.9054L57.1969 32.5371L56.8401 32.8873ZM57.2016 33.2556L56.863 32.8877L56.4834 33.237L56.8219 33.6049L57.1605 33.9729L57.5401 33.6235L57.2016 33.2556ZM56.8219 33.6049L56.4833 33.2371L53.8081 35.6999L54.1468 36.0677L54.4854 36.4356L57.1606 33.9728L56.8219 33.6049ZM54.1468 36.0677L53.6532 36.1475L54.2839 40.0497L54.7775 39.97L55.2711 39.8902L54.6404 35.9879L54.1468 36.0677ZM54.7775 39.97L54.6253 40.4462L58.4027 41.6531L58.5549 41.1768L58.707 40.7005L54.9297 39.4937L54.7775 39.97ZM58.5549 41.1768L58.4029 41.6531L58.8619 41.7995L59.0139 41.3232L59.1658 40.8468L58.7068 40.7004L58.5549 41.1768ZM59.0139 41.3232L58.5323 41.1887L56.5739 48.2056L57.0555 48.34L57.5371 48.4744L59.4954 41.4576L59.0139 41.3232ZM57.0555 48.34L57.169 47.853L56.7021 47.7442L56.5886 48.2312L56.4751 48.7181L56.942 48.8269L57.0555 48.34ZM56.5886 48.2312L56.7021 47.7442L53.4189 46.9792L53.3055 47.4662L53.192 47.9531L56.4752 48.7181L56.5886 48.2312ZM53.3055 47.4662L52.9617 47.1031L50.0088 49.8994L50.3526 50.2625L50.6964 50.6255L53.6493 47.8292L53.3055 47.4662ZM50.3526 50.2625L49.8617 50.3577L50.4831 53.5604L50.974 53.4651L51.4648 53.3699L50.8434 50.1672L50.3526 50.2625ZM50.974 53.4651L50.4831 53.56L50.5686 54.0026L51.0595 53.9077L51.5504 53.8128L51.4649 53.3703L50.974 53.4651ZM51.0595 53.9077L50.9143 53.4292L44.5645 55.3557L44.7097 55.8342L44.8549 56.3127L51.2047 54.3862L51.0595 53.9077ZM44.7097 55.8342L44.5648 55.3557L44.086 55.5007L44.2309 55.9792L44.3759 56.4577L44.8546 56.3127L44.7097 55.8342ZM44.2309 55.9792L44.7095 55.8343L44.5645 55.3555L44.0859 55.5004L43.6074 55.6454L43.7524 56.1241L44.2309 55.9792ZM44.0859 55.5004L44.5644 55.3553L43.434 51.6294L42.9555 51.7746L42.4771 51.9197L43.6075 55.6456L44.0859 55.5004ZM42.9555 51.7746L43.1566 51.3168L39.6352 49.7697L39.4341 50.2275L39.233 50.6852L42.7544 52.2323L42.9555 51.7746ZM39.4341 50.2275L39.0345 49.9269L36.9248 52.7312L37.3244 53.0318L37.724 53.3324L39.8336 50.5281L39.4341 50.2275ZM37.3244 53.0318L36.9247 52.7313L36.6147 53.1437L37.0144 53.4441L37.414 53.7446L37.724 53.3322L37.3244 53.0318ZM37.0144 53.4441L37.3276 53.0544L36.9253 52.7311L36.6121 53.1209L36.2989 53.5107L36.7012 53.8339L37.0144 53.4441ZM36.6121 53.1209L36.9254 52.7312L32.2326 48.9592L31.9194 49.3489L31.6061 49.7386L36.2989 53.5106L36.6121 53.1209ZM31.9194 49.3489L32.2327 48.9592L31.8192 48.6268L31.5059 49.0164L31.1926 49.4061L31.6061 49.7385L31.9194 49.3489ZM31.5059 49.0164L31.8766 49.352L32.2325 48.9589L31.8619 48.6233L31.4912 48.2877L31.1353 48.6808L31.5059 49.0164ZM31.8619 48.6233L32.2326 48.9588L34.4257 46.5356L34.055 46.2001L33.6843 45.8646L31.4911 48.2878L31.8619 48.6233ZM34.055 46.2001L34.5398 46.0779L33.4332 41.6888L32.9484 41.8111L32.4636 41.9333L33.5702 46.3223L34.055 46.2001ZM32.9484 41.8111L33.0617 41.3241L29.8132 40.5682L29.6999 41.0551L29.5866 41.5421L32.8351 42.2981L32.9484 41.8111ZM29.6999 41.0551L29.8134 40.5682L29.3049 40.4497L29.1914 40.9366L29.0779 41.4236L29.5864 41.5421L29.6999 41.0551ZM29.1914 40.9366L29.673 41.0711L31.6421 34.0156L31.1605 33.8812L30.6789 33.7467L28.7098 40.8022L29.1914 40.9366ZM31.1605 33.8812L31.047 34.3681L31.5139 34.4769L31.6274 33.99L31.7409 33.503L31.274 33.3942L31.1605 33.8812ZM31.6274 33.99L31.5141 34.477L34.7962 35.241L34.9096 34.754L35.0229 34.267L31.7408 33.503L31.6274 33.99ZM34.9096 34.754L35.2534 35.1171L38.2063 32.3208L37.8625 31.9577L37.5187 31.5947L34.5658 34.391L34.9096 34.754ZM37.8625 31.9577L38.3534 31.8626L37.733 28.6609L37.2421 28.756L36.7512 28.8511L37.3716 32.0528L37.8625 31.9577ZM37.2421 28.756L37.7329 28.6607L37.6489 28.2278L37.158 28.3231L36.6672 28.4184L36.7513 28.8513L37.2421 28.756ZM37.158 28.3231L37.3134 28.7984L37.7329 28.6612L37.5775 28.186L37.4221 27.7107L37.0026 27.8479L37.158 28.3231ZM37.5775 28.186L37.7328 28.6612L43.1517 26.8904L42.9964 26.4152L42.8411 25.9399L37.4222 27.7107L37.5775 28.186ZM42.9964 26.4152L43.1516 26.8905L43.6212 26.7371L43.466 26.2618L43.3107 25.7865L42.8412 25.9399L42.9964 26.4152ZM43.466 26.2618L42.9926 26.423L43.1517 26.8903L43.6251 26.7291L44.0984 26.568L43.9393 26.1007L43.466 26.2618ZM44.1471 36.8534L44.1223 36.354C41.3643 36.4909 39.2394 38.8377 39.3763 41.5957L39.8757 41.5709L40.375 41.5461C40.2655 39.3397 41.9654 37.4623 44.1719 37.3528L44.1471 36.8534ZM39.8757 41.5709L39.3763 41.5957C39.5131 44.3537 41.8599 46.4786 44.618 46.3417L44.5932 45.8423L44.5684 45.3429C42.362 45.4525 40.4845 43.7526 40.375 41.5461L39.8757 41.5709ZM44.5932 45.8423L44.618 46.3417C47.376 46.2048 49.5009 43.8581 49.364 41.1L48.8646 41.1248L48.3652 41.1496C48.4747 43.356 46.7748 45.2334 44.5684 45.3429L44.5932 45.8423ZM48.8646 41.1248L49.364 41.1C49.2271 38.342 46.8803 36.2171 44.1223 36.354L44.1471 36.8534L44.1719 37.3528C46.3783 37.2433 48.2557 38.9432 48.3652 41.1496L48.8646 41.1248Z" fill="#013D5E"/>
<path d="M87.8187 27.1621L88.4925 30.4608L92.8567 32.1443L95.8209 30.0383L96.2157 29.7572L96.5092 30.1431L100.152 34.9367L100.464 35.3476L100.044 35.6463L97.0796 37.7523L97.2135 41.7029L100.809 43.3762L101.245 43.5792L98.4185 50.2933L97.969 50.1265L94.8084 48.9538L91.5266 51.3557L91.7395 54.6111L91.7685 55.0609L85.2265 56.1718L84.7333 56.2553L84.6498 55.7621L83.998 51.9234L80.6996 49.9449L78.2533 52.4609L77.8938 52.8309L77.5355 52.4596L73.3556 48.1262L72.9873 47.7443L73.39 47.3992L75.871 45.2717L75.3264 40.7782L72.199 39.6189L71.7096 39.4372L74.5522 32.6862L75.0017 32.853L78.1613 34.0246L81.4431 31.6227L81.2312 28.3684L81.2024 27.9283L81.6358 27.8451L87.2346 26.7714L87.7198 26.6785L87.8187 27.1621ZM87.0606 37.2714C84.5826 37.0808 82.4193 38.935 82.2287 41.413C82.038 43.891 83.8923 46.0543 86.3702 46.2449C88.8482 46.4355 91.0115 44.5813 91.2022 42.1033C91.3928 39.6254 89.5385 37.4621 87.0606 37.2714Z" fill="#42B8F7"/>
<path d="M87.8187 27.1621L88.3086 27.062L88.3086 27.0619L87.8187 27.1621ZM88.4925 30.4608L88.0026 30.5609L88.0573 30.8289L88.3125 30.9273L88.4925 30.4608ZM92.8567 32.1443L92.6767 32.6108L92.9273 32.7074L93.1463 32.5519L92.8567 32.1443ZM95.8209 30.0383L96.1105 30.4459L96.1109 30.4456L95.8209 30.0383ZM96.2157 29.7572L96.6137 29.4545L96.3204 29.0689L95.9257 29.3499L96.2157 29.7572ZM96.5092 30.1431L96.9073 29.8406L96.9072 29.8405L96.5092 30.1431ZM100.152 34.9367L100.55 34.6342L100.55 34.6342L100.152 34.9367ZM100.464 35.3476L100.754 35.7553L101.175 35.4563L100.863 35.0451L100.464 35.3476ZM100.044 35.6463L99.7543 35.2386L99.7542 35.2387L100.044 35.6463ZM97.0796 37.7523L96.79 37.3447L96.5708 37.5004L96.5799 37.7692L97.0796 37.7523ZM97.2135 41.7029L96.7138 41.7198L96.7242 42.0267L97.0025 42.1562L97.2135 41.7029ZM100.809 43.3762L100.598 43.8295L100.598 43.8296L100.809 43.3762ZM101.245 43.5792L101.706 43.7732L101.893 43.329L101.456 43.1258L101.245 43.5792ZM98.4185 50.2933L98.2445 50.762L98.6934 50.9287L98.8793 50.4873L98.4185 50.2933ZM97.969 50.1265L98.143 49.6577L98.1429 49.6577L97.969 50.1265ZM94.8084 48.9538L94.9823 48.4851L94.7302 48.3915L94.5131 48.5504L94.8084 48.9538ZM91.5266 51.3557L91.2313 50.9522L91.0098 51.1143L91.0277 51.3883L91.5266 51.3557ZM91.7395 54.6111L92.2384 54.5789L92.2384 54.5785L91.7395 54.6111ZM91.7685 55.0609L91.8522 55.5539L92.2965 55.4784L92.2675 55.0287L91.7685 55.0609ZM85.2265 56.1718L85.31 56.6648L85.3102 56.6647L85.2265 56.1718ZM84.7333 56.2553L84.2403 56.3388L84.3238 56.8317L84.8168 56.7483L84.7333 56.2553ZM84.6498 55.7621L85.1428 55.6786L85.1428 55.6784L84.6498 55.7621ZM83.998 51.9234L84.491 51.8397L84.4524 51.613L84.2552 51.4947L83.998 51.9234ZM80.6996 49.9449L80.9568 49.5161L80.6172 49.3124L80.3411 49.5963L80.6996 49.9449ZM78.2533 52.4609L77.8948 52.1124L77.8947 52.1125L78.2533 52.4609ZM77.8938 52.8309L77.534 53.1781L77.8926 53.5497L78.2524 53.1794L77.8938 52.8309ZM77.5355 52.4596L77.1756 52.8067L77.1757 52.8068L77.5355 52.4596ZM73.3556 48.1262L72.9957 48.4733L72.9957 48.4733L73.3556 48.1262ZM72.9873 47.7443L72.6619 47.3647L72.2593 47.7097L72.6274 48.0914L72.9873 47.7443ZM73.39 47.3992L73.7153 47.7788L73.7154 47.7787L73.39 47.3992ZM75.871 45.2717L76.1965 45.6512L76.3996 45.4771L76.3674 45.2115L75.871 45.2717ZM75.3264 40.7782L75.8227 40.718L75.786 40.4153L75.5002 40.3094L75.3264 40.7782ZM72.199 39.6189L72.0251 40.0876L72.0253 40.0877L72.199 39.6189ZM71.7096 39.4372L71.2488 39.2432L71.0462 39.7244L71.5356 39.906L71.7096 39.4372ZM74.5522 32.6862L74.7262 32.2174L74.2772 32.0508L74.0914 32.4921L74.5522 32.6862ZM75.0017 32.853L74.8277 33.3217L74.8278 33.3218L75.0017 32.853ZM78.1613 34.0246L77.9875 34.4934L78.2396 34.5869L78.4566 34.428L78.1613 34.0246ZM81.4431 31.6227L81.7384 32.0262L81.9599 31.8641L81.9421 31.5902L81.4431 31.6227ZM81.2312 28.3684L81.7301 28.3359L81.7301 28.3357L81.2312 28.3684ZM81.2024 27.9283L81.1081 27.4373L80.6746 27.5205L80.7034 27.961L81.2024 27.9283ZM81.6358 27.8451L81.5416 27.3541L81.5415 27.3541L81.6358 27.8451ZM87.2346 26.7714L87.1406 26.2804L87.1405 26.2804L87.2346 26.7714ZM87.7198 26.6785L88.2096 26.5783L88.1107 26.0945L87.6257 26.1874L87.7198 26.6785ZM87.8187 27.1621L87.3288 27.2622L88.0026 30.5609L88.4925 30.4608L88.9824 30.3607L88.3086 27.062L87.8187 27.1621ZM88.4925 30.4608L88.3125 30.9273L92.6767 32.6108L92.8567 32.1443L93.0366 31.6778L88.6724 29.9943L88.4925 30.4608ZM92.8567 32.1443L93.1463 32.5519L96.1105 30.4459L95.8209 30.0383L95.5313 29.6307L92.5671 31.7367L92.8567 32.1443ZM95.8209 30.0383L96.1109 30.4456L96.5057 30.1645L96.2157 29.7572L95.9257 29.3499L95.5309 29.631L95.8209 30.0383ZM96.2157 29.7572L95.8177 30.0599L96.1112 30.4458L96.5092 30.1431L96.9072 29.8405L96.6137 29.4545L96.2157 29.7572ZM96.5092 30.1431L96.1111 30.4457L99.7542 35.2392L100.152 34.9367L100.55 34.6342L96.9073 29.8406L96.5092 30.1431ZM100.152 34.9367L99.7541 35.2392L100.066 35.6501L100.464 35.3476L100.863 35.0451L100.55 34.6342L100.152 34.9367ZM100.464 35.3476L100.175 34.9399L99.7543 35.2386L100.044 35.6463L100.333 36.054L100.754 35.7553L100.464 35.3476ZM100.044 35.6463L99.7542 35.2387L96.79 37.3447L97.0796 37.7523L97.3692 38.1599L100.333 36.0539L100.044 35.6463ZM97.0796 37.7523L96.5799 37.7692L96.7138 41.7198L97.2135 41.7029L97.7132 41.686L97.5793 37.7353L97.0796 37.7523ZM97.2135 41.7029L97.0025 42.1562L100.598 43.8295L100.809 43.3762L101.02 42.9229L97.4245 41.2496L97.2135 41.7029ZM100.809 43.3762L100.598 43.8296L101.035 44.0326L101.245 43.5792L101.456 43.1258L101.019 42.9227L100.809 43.3762ZM101.245 43.5792L100.785 43.3852L97.9576 50.0993L98.4185 50.2933L98.8793 50.4873L101.706 43.7732L101.245 43.5792ZM98.4185 50.2933L98.5924 49.8245L98.143 49.6577L97.969 50.1265L97.795 50.5952L98.2445 50.762L98.4185 50.2933ZM97.969 50.1265L98.1429 49.6577L94.9823 48.4851L94.8084 48.9538L94.6345 49.4226L97.7951 50.5953L97.969 50.1265ZM94.8084 48.9538L94.5131 48.5504L91.2313 50.9522L91.5266 51.3557L91.8219 51.7592L95.1037 49.3573L94.8084 48.9538ZM91.5266 51.3557L91.0277 51.3883L91.2405 54.6437L91.7395 54.6111L92.2384 54.5785L92.0256 51.3231L91.5266 51.3557ZM91.7395 54.6111L91.2405 54.6433L91.2696 55.0932L91.7685 55.0609L92.2675 55.0287L92.2384 54.5789L91.7395 54.6111ZM91.7685 55.0609L91.6848 54.568L85.1428 55.6788L85.2265 56.1718L85.3102 56.6647L91.8522 55.5539L91.7685 55.0609ZM85.2265 56.1718L85.1431 55.6788L84.6499 55.7623L84.7333 56.2553L84.8168 56.7483L85.31 56.6648L85.2265 56.1718ZM84.7333 56.2553L85.2263 56.1718L85.1428 55.6786L84.6498 55.7621L84.1568 55.8455L84.2403 56.3388L84.7333 56.2553ZM84.6498 55.7621L85.1428 55.6784L84.491 51.8397L83.998 51.9234L83.5051 52.0071L84.1569 55.8458L84.6498 55.7621ZM83.998 51.9234L84.2552 51.4947L80.9568 49.5161L80.6996 49.9449L80.4424 50.3736L83.7408 52.3522L83.998 51.9234ZM80.6996 49.9449L80.3411 49.5963L77.8948 52.1124L78.2533 52.4609L78.6118 52.8095L81.0581 50.2934L80.6996 49.9449ZM78.2533 52.4609L77.8947 52.1125L77.5352 52.4825L77.8938 52.8309L78.2524 53.1794L78.6119 52.8094L78.2533 52.4609ZM77.8938 52.8309L78.2536 52.4838L77.8953 52.1124L77.5355 52.4596L77.1757 52.8068L77.534 53.1781L77.8938 52.8309ZM77.5355 52.4596L77.8954 52.1125L73.7154 47.7791L73.3556 48.1262L72.9957 48.4733L77.1756 52.8067L77.5355 52.4596ZM73.3556 48.1262L73.7155 47.7791L73.3472 47.3972L72.9873 47.7443L72.6274 48.0914L72.9957 48.4733L73.3556 48.1262ZM72.9873 47.7443L73.3127 48.1239L73.7153 47.7788L73.39 47.3992L73.0646 47.0195L72.6619 47.3647L72.9873 47.7443ZM73.39 47.3992L73.7154 47.7787L76.1965 45.6512L75.871 45.2717L75.5455 44.8921L73.0645 47.0196L73.39 47.3992ZM75.871 45.2717L76.3674 45.2115L75.8227 40.718L75.3264 40.7782L74.83 40.8383L75.3746 45.3318L75.871 45.2717ZM75.3264 40.7782L75.5002 40.3094L72.3728 39.15L72.199 39.6189L72.0253 40.0877L75.1526 41.247L75.3264 40.7782ZM72.199 39.6189L72.373 39.1501L71.8835 38.9685L71.7096 39.4372L71.5356 39.906L72.0251 40.0876L72.199 39.6189ZM71.7096 39.4372L72.1704 39.6313L75.013 32.8802L74.5522 32.6862L74.0914 32.4921L71.2488 39.2432L71.7096 39.4372ZM74.5522 32.6862L74.3782 33.1549L74.8277 33.3217L75.0017 32.853L75.1756 32.3842L74.7262 32.2174L74.5522 32.6862ZM75.0017 32.853L74.8278 33.3218L77.9875 34.4934L78.1613 34.0246L78.3352 33.5558L75.1755 32.3842L75.0017 32.853ZM78.1613 34.0246L78.4566 34.428L81.7384 32.0262L81.4431 31.6227L81.1478 31.2192L77.866 33.6211L78.1613 34.0246ZM81.4431 31.6227L81.9421 31.5902L81.7301 28.3359L81.2312 28.3684L80.7322 28.4009L80.9442 31.6552L81.4431 31.6227ZM81.2312 28.3684L81.7301 28.3357L81.7013 27.8956L81.2024 27.9283L80.7034 27.961L80.7323 28.4011L81.2312 28.3684ZM81.2024 27.9283L81.2966 28.4194L81.7301 28.3362L81.6358 27.8451L81.5415 27.3541L81.1081 27.4373L81.2024 27.9283ZM81.6358 27.8451L81.73 28.3362L87.3288 27.2625L87.2346 26.7714L87.1405 26.2804L81.5416 27.3541L81.6358 27.8451ZM87.2346 26.7714L87.3287 27.2625L87.8139 27.1695L87.7198 26.6785L87.6257 26.1874L87.1406 26.2804L87.2346 26.7714ZM87.7198 26.6785L87.2299 26.7787L87.3289 27.2623L87.8187 27.1621L88.3086 27.0619L88.2096 26.5783L87.7198 26.6785ZM87.0606 37.2714L87.0989 36.7729C84.3456 36.5611 81.942 38.6214 81.7301 41.3746L82.2287 41.413L82.7272 41.4514C82.8966 39.2487 84.8196 37.6005 87.0222 37.7699L87.0606 37.2714ZM82.2287 41.413L81.7301 41.3746C81.5183 44.1279 83.5786 46.5316 86.3319 46.7434L86.3702 46.2449L86.4086 45.7464C84.206 45.5769 82.5578 43.654 82.7272 41.4514L82.2287 41.413ZM86.3702 46.2449L86.3319 46.7434C89.0852 46.9552 91.4889 44.895 91.7007 42.1417L91.2022 42.1033L90.7036 42.065C90.5342 44.2676 88.6112 45.9158 86.4086 45.7464L86.3702 46.2449ZM91.2022 42.1033L91.7007 42.1417C91.9125 39.3884 89.8522 36.9847 87.0989 36.7729L87.0606 37.2714L87.0222 37.7699C89.2249 37.9394 90.8731 39.8624 90.7036 42.065L91.2022 42.1033Z" fill="#013D5E"/>
<path d="M64.8059 46.0873L65.3188 47.8941L67.7219 48.6024L69.2671 47.2824L69.6417 46.9616L69.9664 47.3277L72.3084 49.9741L72.6448 50.3538L72.2566 50.6865L70.7055 52.0104L70.9385 54.1079L72.9931 54.8691L73.4406 55.0349L73.2917 55.4904L72.1262 59.0579L71.9764 59.5173L71.5124 59.3878L69.7257 58.8867L68.0908 60.3237L68.3488 62.128L68.4119 62.5717L67.9775 62.6861L64.4689 63.6072L63.9818 63.7357L63.8601 63.2476L63.3282 61.104L61.5489 60.2191L60.3437 61.7L60.0122 62.1073L59.6231 61.7603L56.9884 59.4136L56.5994 59.0666L56.9661 58.6911L58.2408 57.3854L57.7633 54.9835L56.0088 54.4919L55.5106 54.352L55.6721 53.8583L56.8366 50.2909L56.9874 49.8305L57.4505 49.961L59.2362 50.4611L60.8711 49.0241L60.615 47.2208L60.5529 46.7868L60.9756 46.6657L64.1912 45.7473L64.6705 45.61L64.8059 46.0873ZM64.6248 52.1535C63.1715 52.167 61.9948 53.3716 61.9964 54.8448C61.9982 56.3182 63.1779 57.5018 64.6314 57.4884C66.0848 57.475 67.2616 56.2696 67.2598 54.7962C67.2578 53.3229 66.0782 52.1401 64.6248 52.1535Z" fill="#42B8F7"/>
<path d="M64.8059 46.0873L64.3248 46.2273L64.3248 46.2274L64.8059 46.0873ZM65.3188 47.8941L64.8377 48.0342L64.9123 48.2967L65.1739 48.3738L65.3188 47.8941ZM67.7219 48.6024L67.5771 49.0821L67.8373 49.1588L68.0449 48.9815L67.7219 48.6024ZM69.2671 47.2824L69.5901 47.6615L69.5906 47.6611L69.2671 47.2824ZM69.6417 46.9616L70.017 46.6281L69.6926 46.2623L69.3183 46.5829L69.6417 46.9616ZM69.9664 47.3277L70.342 46.9946L70.3416 46.9943L69.9664 47.3277ZM72.3084 49.9741L71.9329 50.3071L71.933 50.3073L72.3084 49.9741ZM72.6448 50.3538L72.9684 50.7324L73.3563 50.3999L73.0202 50.0205L72.6448 50.3538ZM72.2566 50.6865L72.5794 51.0657L72.5801 51.0651L72.2566 50.6865ZM70.7055 52.0104L70.3827 51.6311L70.1792 51.8049L70.2086 52.0695L70.7055 52.0104ZM70.9385 54.1079L70.4416 54.167L70.4754 54.4709L70.7615 54.5769L70.9385 54.1079ZM72.9931 54.8691L72.8161 55.3382L72.8161 55.3382L72.9931 54.8691ZM73.4406 55.0349L73.9157 55.1868L74.0645 54.7315L73.6176 54.5659L73.4406 55.0349ZM73.2917 55.4904L72.8166 55.3385L72.8166 55.3386L73.2917 55.4904ZM72.1262 59.0579L71.6511 58.906L71.651 58.9063L72.1262 59.0579ZM71.9764 59.5173L71.8384 59.999L72.3018 60.1283L72.4516 59.6689L71.9764 59.5173ZM71.5124 59.3878L71.3738 59.8693L71.3744 59.8695L71.5124 59.3878ZM69.7257 58.8867L69.8642 58.4052L69.6026 58.3318L69.3973 58.5123L69.7257 58.8867ZM68.0908 60.3237L67.7624 59.9493L67.5574 60.1295L67.5958 60.3984L68.0908 60.3237ZM68.3488 62.128L68.8439 62.0537L68.8438 62.0533L68.3488 62.128ZM68.4119 62.5717L68.5355 63.0552L68.9699 62.9409L68.9069 62.4975L68.4119 62.5717ZM67.9775 62.6861L68.1008 63.1697L68.1011 63.1696L67.9775 62.6861ZM64.4689 63.6072L64.3456 63.1236L64.345 63.1238L64.4689 63.6072ZM63.9818 63.7357L63.4966 63.8603L63.6181 64.3478L64.1057 64.2191L63.9818 63.7357ZM63.8601 63.2476L63.3748 63.3717L63.3749 63.3722L63.8601 63.2476ZM63.3282 61.104L63.8135 60.9799L63.7584 60.7578L63.5537 60.656L63.3282 61.104ZM61.5489 60.2191L61.7744 59.771L61.4163 59.593L61.1621 59.9053L61.5489 60.2191ZM60.3437 61.7L59.9569 61.3862L59.9569 61.3862L60.3437 61.7ZM60.0122 62.1073L59.6777 62.4817L60.067 62.8289L60.3989 62.4211L60.0122 62.1073ZM59.6231 61.7603L59.9575 61.386L59.9573 61.3858L59.6231 61.7603ZM56.9884 59.4136L56.654 59.7879L56.6542 59.7881L56.9884 59.4136ZM56.5994 59.0666L56.2431 58.7187L55.8762 59.0943L56.2649 59.441L56.5994 59.0666ZM56.9661 58.6911L57.3224 59.039L57.3225 59.039L56.9661 58.6911ZM58.2408 57.3854L58.5972 57.7332L58.7827 57.5432L58.7312 57.2841L58.2408 57.3854ZM57.7633 54.9835L58.2537 54.8822L58.1944 54.584L57.9017 54.502L57.7633 54.9835ZM56.0088 54.4919L55.8701 54.9734L55.8703 54.9735L56.0088 54.4919ZM55.5106 54.352L55.0355 54.2L54.874 54.6936L55.3719 54.8335L55.5106 54.352ZM55.6721 53.8583L56.1472 54.0103L56.1473 54.01L55.6721 53.8583ZM56.8366 50.2909L56.3616 50.1386L56.3615 50.1391L56.8366 50.2909ZM56.9874 49.8305L57.1266 49.3491L56.663 49.2185L56.5124 49.6783L56.9874 49.8305ZM57.4505 49.961L57.3113 50.4423L57.3121 50.4425L57.4505 49.961ZM59.2362 50.4611L59.0978 50.9426L59.3593 51.0159L59.5646 50.8355L59.2362 50.4611ZM60.8711 49.0241L61.1995 49.3985L61.4043 49.2185L61.3661 48.9499L60.8711 49.0241ZM60.615 47.2208L61.11 47.1466L61.1099 47.1461L60.615 47.2208ZM60.5529 46.7868L60.4188 46.3061L59.9959 46.4273L60.058 46.8614L60.5529 46.7868ZM60.9756 46.6657L60.8419 46.1849L60.8415 46.1851L60.9756 46.6657ZM64.1912 45.7473L64.3249 46.228L64.3252 46.2279L64.1912 45.7473ZM64.6705 45.61L65.1516 45.47L65.0161 44.9921L64.5365 45.1294L64.6705 45.61ZM64.6248 52.1535L64.6242 51.6535L64.6242 51.6535L64.6248 52.1535ZM61.9964 54.8448L61.4964 54.8493L61.4964 54.8494L61.9964 54.8448ZM64.6314 57.4884L64.6319 57.9884L64.632 57.9884L64.6314 57.4884ZM67.2598 54.7962L67.7598 54.7915L67.7598 54.7915L67.2598 54.7962ZM64.8059 46.0873L64.3248 46.2274L64.8377 48.0342L65.3188 47.8941L65.7998 47.754L65.2869 45.9472L64.8059 46.0873ZM65.3188 47.8941L65.1739 48.3738L67.5771 49.0821L67.7219 48.6024L67.8668 48.1226L65.4637 47.4144L65.3188 47.8941ZM67.7219 48.6024L68.0449 48.9815L69.5901 47.6615L69.2671 47.2824L68.9442 46.9033L67.399 48.2233L67.7219 48.6024ZM69.2671 47.2824L69.5906 47.6611L69.9652 47.3402L69.6417 46.9616L69.3183 46.5829L68.9437 46.9037L69.2671 47.2824ZM69.6417 46.9616L69.2665 47.295L69.5911 47.6611L69.9664 47.3277L70.3416 46.9943L70.017 46.6281L69.6417 46.9616ZM69.9664 47.3277L69.5908 47.6608L71.9329 50.3071L72.3084 49.9741L72.684 49.641L70.342 46.9946L69.9664 47.3277ZM72.3084 49.9741L71.933 50.3073L72.2694 50.687L72.6448 50.3538L73.0202 50.0205L72.6838 49.6408L72.3084 49.9741ZM72.6448 50.3538L72.3213 49.9752L71.933 50.3079L72.2566 50.6865L72.5801 51.0651L72.9684 50.7324L72.6448 50.3538ZM72.2566 50.6865L71.9338 50.3072L70.3827 51.6311L70.7055 52.0104L71.0283 52.3896L72.5794 51.0657L72.2566 50.6865ZM70.7055 52.0104L70.2086 52.0695L70.4416 54.167L70.9385 54.1079L71.4355 54.0487L71.2024 51.9512L70.7055 52.0104ZM70.9385 54.1079L70.7615 54.5769L72.8161 55.3382L72.9931 54.8691L73.1701 54.4001L71.1155 53.6388L70.9385 54.1079ZM72.9931 54.8691L72.8161 55.3382L73.2636 55.504L73.4406 55.0349L73.6176 54.5659L73.1701 54.4001L72.9931 54.8691ZM73.4406 55.0349L72.9654 54.8831L72.8166 55.3385L73.2917 55.4904L73.7668 55.6423L73.9157 55.1868L73.4406 55.0349ZM73.2917 55.4904L72.8166 55.3386L71.6511 58.906L72.1262 59.0579L72.6013 59.2097L73.7669 55.6423L73.2917 55.4904ZM72.1262 59.0579L71.651 58.9063L71.5012 59.3657L71.9764 59.5173L72.4516 59.6689L72.6014 59.2095L72.1262 59.0579ZM71.9764 59.5173L72.1143 59.0356L71.6503 58.9061L71.5124 59.3878L71.3744 59.8695L71.8384 59.999L71.9764 59.5173ZM71.5124 59.3878L71.6509 58.9062L69.8642 58.4052L69.7257 58.8867L69.5871 59.3682L71.3738 59.8693L71.5124 59.3878ZM69.7257 58.8867L69.3973 58.5123L67.7624 59.9493L68.0908 60.3237L68.4191 60.6981L70.054 59.2611L69.7257 58.8867ZM68.0908 60.3237L67.5958 60.3984L67.8539 62.2026L68.3488 62.128L68.8438 62.0533L68.5857 60.249L68.0908 60.3237ZM68.3488 62.128L67.8538 62.2022L67.9169 62.6459L68.4119 62.5717L68.9069 62.4975L68.8439 62.0537L68.3488 62.128ZM68.4119 62.5717L68.2882 62.0882L67.8538 62.2026L67.9775 62.6861L68.1011 63.1696L68.5355 63.0552L68.4119 62.5717ZM67.9775 62.6861L67.8541 62.2025L64.3456 63.1236L64.4689 63.6072L64.5922 64.0908L68.1008 63.1697L67.9775 62.6861ZM64.4689 63.6072L64.345 63.1238L63.8579 63.2523L63.9818 63.7357L64.1057 64.2191L64.5928 64.0906L64.4689 63.6072ZM63.9818 63.7357L64.467 63.6111L64.3453 63.123L63.8601 63.2476L63.3749 63.3722L63.4966 63.8603L63.9818 63.7357ZM63.8601 63.2476L64.3454 63.1235L63.8135 60.9799L63.3282 61.104L62.8429 61.2281L63.3748 63.3717L63.8601 63.2476ZM63.3282 61.104L63.5537 60.656L61.7744 59.771L61.5489 60.2191L61.3234 60.6672L63.1027 61.5521L63.3282 61.104ZM61.5489 60.2191L61.1621 59.9053L59.9569 61.3862L60.3437 61.7L60.7304 62.0137L61.9356 60.5329L61.5489 60.2191ZM60.3437 61.7L59.9569 61.3862L59.6254 61.7936L60.0122 62.1073L60.3989 62.4211L60.7304 62.0137L60.3437 61.7ZM60.0122 62.1073L60.3466 61.733L59.9575 61.386L59.6231 61.7603L59.2886 62.1347L59.6777 62.4817L60.0122 62.1073ZM59.6231 61.7603L59.9573 61.3858L57.3226 59.039L56.9884 59.4136L56.6542 59.7881L59.2889 62.1349L59.6231 61.7603ZM56.9884 59.4136L57.3229 59.0392L56.9338 58.6922L56.5994 59.0666L56.2649 59.441L56.654 59.7879L56.9884 59.4136ZM56.5994 59.0666L56.9557 59.4145L57.3224 59.039L56.9661 58.6911L56.6098 58.3432L56.2431 58.7187L56.5994 59.0666ZM56.9661 58.6911L57.3225 59.039L58.5972 57.7332L58.2408 57.3854L57.8844 57.0375L56.6097 58.3433L56.9661 58.6911ZM58.2408 57.3854L58.7312 57.2841L58.2537 54.8822L57.7633 54.9835L57.2729 55.0848L57.7504 57.4867L58.2408 57.3854ZM57.7633 54.9835L57.9017 54.502L56.1473 54.0104L56.0088 54.4919L55.8703 54.9735L57.6248 55.4651L57.7633 54.9835ZM56.0088 54.4919L56.1476 54.0104L55.6494 53.8705L55.5106 54.352L55.3719 54.8335L55.8701 54.9734L56.0088 54.4919ZM55.5106 54.352L55.9857 54.504L56.1472 54.0103L55.6721 53.8583L55.197 53.7063L55.0355 54.2L55.5106 54.352ZM55.6721 53.8583L56.1473 54.01L57.3118 50.4426L56.8366 50.2909L56.3615 50.1391L55.1969 53.7066L55.6721 53.8583ZM56.8366 50.2909L57.3117 50.4431L57.4625 49.9827L56.9874 49.8305L56.5124 49.6783L56.3616 50.1386L56.8366 50.2909ZM56.9874 49.8305L56.8483 50.3118L57.3113 50.4423L57.4505 49.961L57.5897 49.4796L57.1266 49.3491L56.9874 49.8305ZM57.4505 49.961L57.3121 50.4425L59.0978 50.9426L59.2362 50.4611L59.3746 49.9795L57.5889 49.4794L57.4505 49.961ZM59.2362 50.4611L59.5646 50.8355L61.1995 49.3985L60.8711 49.0241L60.5427 48.6496L58.9078 50.0866L59.2362 50.4611ZM60.8711 49.0241L61.3661 48.9499L61.11 47.1466L60.615 47.2208L60.12 47.295L60.3761 49.0983L60.8711 49.0241ZM60.615 47.2208L61.1099 47.1461L61.0479 46.7121L60.5529 46.7868L60.058 46.8614L60.12 47.2954L60.615 47.2208ZM60.5529 46.7868L60.6871 47.2674L61.1097 47.1463L60.9756 46.6657L60.8415 46.1851L60.4188 46.3061L60.5529 46.7868ZM60.9756 46.6657L61.1094 47.1464L64.3249 46.228L64.1912 45.7473L64.0575 45.2665L60.8419 46.1849L60.9756 46.6657ZM64.1912 45.7473L64.3252 46.2279L64.8046 46.0906L64.6705 45.61L64.5365 45.1294L64.0571 45.2666L64.1912 45.7473ZM64.6705 45.61L64.1894 45.75L64.3248 46.2273L64.8059 46.0873L65.2869 45.9473L65.1516 45.47L64.6705 45.61ZM64.6248 52.1535L64.6242 51.6535C62.8885 51.6696 61.4945 53.1063 61.4964 54.8493L61.9964 54.8448L62.4963 54.8402C62.495 53.6369 63.4545 52.6643 64.6254 52.6535L64.6248 52.1535ZM61.9964 54.8448L61.4964 54.8494C61.4985 56.5925 62.896 58.0044 64.6319 57.9884L64.6314 57.4884L64.6308 56.9884C63.4598 56.9992 62.4978 56.0438 62.4963 54.8402L61.9964 54.8448ZM64.6314 57.4884L64.632 57.9884C66.368 57.9724 67.7619 56.5346 67.7598 54.7915L67.2598 54.7962L66.7598 54.8008C66.7613 56.0045 65.8017 56.9776 64.6307 56.9884L64.6314 57.4884ZM67.2598 54.7962L67.7598 54.7915C67.7574 53.0484 66.3599 51.6374 64.6242 51.6535L64.6248 52.1535L64.6254 52.6535C65.7964 52.6427 66.7582 53.5974 66.7598 54.8008L67.2598 54.7962Z" fill="#013D5E"/>
</svg>
